<svg width="1254" height="1047" viewBox="0 0 1254 1047" fill="none" xmlns="http://www.w3.org/2000/svg">
<path d="M598.828 460.641L621.188 488.625C624.344 492.562 627.062 495.234 629.344 496.641C631 497.641 632.75 498.141 634.594 498.141V499.875H601.5V498.141C603.594 497.953 604.938 497.625 605.531 497.156C606.156 496.688 606.469 496.109 606.469 495.422C606.469 494.109 605.031 491.641 602.156 488.016L587.578 469.688L585.234 471.656V489C585.234 492.312 585.422 494.375 585.797 495.188C586.172 496 586.891 496.703 587.953 497.297C589.016 497.859 590.719 498.141 593.062 498.141V499.875H561V498.141H563.109C564.953 498.141 566.438 497.812 567.562 497.156C568.375 496.719 569 495.969 569.438 494.906C569.781 494.156 569.953 492.188 569.953 489V447.188C569.953 443.938 569.781 441.906 569.438 441.094C569.094 440.281 568.391 439.578 567.328 438.984C566.297 438.359 564.891 438.047 563.109 438.047H561V436.312H592.641V438.047C590.484 438.047 588.844 438.359 587.719 438.984C586.906 439.422 586.266 440.156 585.797 441.188C585.422 441.969 585.234 443.969 585.234 447.188V466.969L608.812 447.891C612.094 445.234 613.734 443.109 613.734 441.516C613.734 440.328 613.062 439.391 611.719 438.703C611.031 438.359 609.328 438.141 606.609 438.047V436.312H631.406V438.047C629.188 438.203 627.438 438.609 626.156 439.266C624.906 439.891 622 442.047 617.438 445.734L598.828 460.641Z" fill="white"/>
<path d="M673.5 481.781H651.047L648.375 487.969C647.5 490.031 647.062 491.734 647.062 493.078C647.062 494.859 647.781 496.172 649.219 497.016C650.062 497.516 652.141 497.891 655.453 498.141V499.875H634.312V498.141C636.594 497.797 638.469 496.859 639.938 495.328C641.406 493.766 643.219 490.562 645.375 485.719L668.109 435H669L691.922 487.125C694.109 492.062 695.906 495.172 697.312 496.453C698.375 497.422 699.875 497.984 701.812 498.141V499.875H671.062V498.141H672.328C674.797 498.141 676.531 497.797 677.531 497.109C678.219 496.609 678.562 495.891 678.562 494.953C678.562 494.391 678.469 493.812 678.281 493.219C678.219 492.938 677.75 491.766 676.875 489.703L673.5 481.781ZM671.906 478.312L662.438 456.422L652.688 478.312H671.906Z" fill="white"/>
<path d="M742.875 481.781H720.422L717.75 487.969C716.875 490.031 716.438 491.734 716.438 493.078C716.438 494.859 717.156 496.172 718.594 497.016C719.438 497.516 721.516 497.891 724.828 498.141V499.875H703.688V498.141C705.969 497.797 707.844 496.859 709.312 495.328C710.781 493.766 712.594 490.562 714.75 485.719L737.484 435H738.375L761.297 487.125C763.484 492.062 765.281 495.172 766.688 496.453C767.75 497.422 769.25 497.984 771.188 498.141V499.875H740.438V498.141H741.703C744.172 498.141 745.906 497.797 746.906 497.109C747.594 496.609 747.938 495.891 747.938 494.953C747.938 494.391 747.844 493.812 747.656 493.219C747.594 492.938 747.125 491.766 746.25 489.703L742.875 481.781ZM741.281 478.312L731.812 456.422L722.062 478.312H741.281Z" fill="white"/>
<path d="M798.234 471.094V488.719C798.234 492.156 798.438 494.328 798.844 495.234C799.281 496.109 800.031 496.812 801.094 497.344C802.188 497.875 804.172 498.141 807.047 498.141V499.875H774.75V498.141C777.688 498.141 779.672 497.875 780.703 497.344C781.766 496.781 782.5 496.062 782.906 495.188C783.344 494.312 783.562 492.156 783.562 488.719V447.469C783.562 444.031 783.344 441.875 782.906 441C782.5 440.094 781.766 439.375 780.703 438.844C779.641 438.312 777.656 438.047 774.75 438.047V436.312H802.453C811.578 436.312 818.125 437.938 822.094 441.188C826.062 444.438 828.047 448.5 828.047 453.375C828.047 457.5 826.766 461.031 824.203 463.969C821.641 466.906 818.109 468.906 813.609 469.969C810.578 470.719 805.453 471.094 798.234 471.094ZM798.234 439.969V467.438C799.266 467.5 800.047 467.531 800.578 467.531C804.391 467.531 807.328 466.406 809.391 464.156C811.453 461.875 812.484 458.359 812.484 453.609C812.484 448.891 811.453 445.438 809.391 443.25C807.328 441.062 804.25 439.969 800.156 439.969H798.234Z" fill="white"/>
<path d="M868.078 435.422C878.203 435.047 886.422 438 892.734 444.281C899.078 450.562 902.25 458.422 902.25 467.859C902.25 475.922 899.891 483.016 895.172 489.141C888.922 497.266 880.094 501.328 868.688 501.328C857.25 501.328 848.406 497.453 842.156 489.703C837.219 483.578 834.75 476.312 834.75 467.906C834.75 458.469 837.953 450.609 844.359 444.328C850.797 438.016 858.703 435.047 868.078 435.422ZM868.641 438.422C862.828 438.422 858.406 441.391 855.375 447.328C852.906 452.203 851.672 459.203 851.672 468.328C851.672 479.172 853.578 487.188 857.391 492.375C860.047 496 863.766 497.812 868.547 497.812C871.766 497.812 874.453 497.031 876.609 495.469C879.359 493.469 881.5 490.281 883.031 485.906C884.562 481.5 885.328 475.766 885.328 468.703C885.328 460.297 884.547 454.016 882.984 449.859C881.422 445.672 879.422 442.719 876.984 441C874.578 439.281 871.797 438.422 868.641 438.422Z" fill="white"/>
<path d="M945.656 481.781H923.203L920.531 487.969C919.656 490.031 919.219 491.734 919.219 493.078C919.219 494.859 919.938 496.172 921.375 497.016C922.219 497.516 924.297 497.891 927.609 498.141V499.875H906.469V498.141C908.75 497.797 910.625 496.859 912.094 495.328C913.562 493.766 915.375 490.562 917.531 485.719L940.266 435H941.156L964.078 487.125C966.266 492.062 968.062 495.172 969.469 496.453C970.531 497.422 972.031 497.984 973.969 498.141V499.875H943.219V498.141H944.484C946.953 498.141 948.688 497.797 949.688 497.109C950.375 496.609 950.719 495.891 950.719 494.953C950.719 494.391 950.625 493.812 950.438 493.219C950.375 492.938 949.906 491.766 949.031 489.703L945.656 481.781ZM944.062 478.312L934.594 456.422L924.844 478.312H944.062Z" fill="white"/>
<path d="M713.234 560.969V587.078H715.062C717.875 587.078 720.172 586.656 721.953 585.812C723.734 584.969 725.234 583.547 726.453 581.547C727.703 579.547 728.516 576.844 728.891 573.438H730.531V605.359H728.891C728.297 599.328 726.672 595.359 724.016 593.453C721.391 591.516 718.406 590.547 715.062 590.547H713.234V610C713.234 613.25 713.406 615.281 713.75 616.094C714.125 616.906 714.828 617.625 715.859 618.25C716.922 618.844 718.344 619.141 720.125 619.141H722.234V620.875H689V619.141H691.109C692.953 619.141 694.438 618.812 695.562 618.156C696.375 617.719 697 616.969 697.438 615.906C697.781 615.156 697.953 613.188 697.953 610V568.188C697.953 564.938 697.781 562.906 697.438 562.094C697.094 561.281 696.391 560.578 695.328 559.984C694.297 559.359 692.891 559.047 691.109 559.047H689V557.312H742.625V575.547H740.703C740.266 571.266 739.141 568.094 737.328 566.031C735.547 563.969 732.953 562.516 729.547 561.672C727.672 561.203 724.203 560.969 719.141 560.969H713.234Z" fill="white"/>
<path d="M747.781 557.312H780.594V559.047H778.953C776.484 559.047 774.781 559.312 773.844 559.844C772.938 560.344 772.281 561.047 771.875 561.953C771.5 562.859 771.312 565.125 771.312 568.75V599.875C771.312 605.562 771.734 609.328 772.578 611.172C773.453 613.016 774.875 614.547 776.844 615.766C778.812 616.984 781.297 617.594 784.297 617.594C787.734 617.594 790.656 616.828 793.062 615.297C795.5 613.734 797.312 611.594 798.5 608.875C799.719 606.156 800.328 601.422 800.328 594.672V568.75C800.328 565.906 800.031 563.875 799.438 562.656C798.844 561.438 798.094 560.594 797.188 560.125C795.781 559.406 793.797 559.047 791.234 559.047V557.312H813.219V559.047H811.906C810.125 559.047 808.641 559.406 807.453 560.125C806.266 560.844 805.406 561.922 804.875 563.359C804.469 564.359 804.266 566.156 804.266 568.75V592.891C804.266 600.359 803.766 605.75 802.766 609.062C801.797 612.375 799.406 615.422 795.594 618.203C791.781 620.984 786.578 622.375 779.984 622.375C774.484 622.375 770.234 621.641 767.234 620.172C763.141 618.172 760.25 615.609 758.562 612.484C756.875 609.359 756.031 605.156 756.031 599.875V568.75C756.031 565.094 755.828 562.828 755.422 561.953C755.016 561.047 754.312 560.328 753.312 559.797C752.312 559.266 750.469 559.016 747.781 559.047V557.312Z" fill="white"/>
<path d="M840.406 591.906V609.719C840.406 613.156 840.609 615.328 841.016 616.234C841.453 617.109 842.203 617.812 843.266 618.344C844.328 618.875 846.312 619.141 849.219 619.141V620.875H816.688V619.141C819.625 619.141 821.609 618.875 822.641 618.344C823.703 617.781 824.438 617.062 824.844 616.188C825.281 615.312 825.5 613.156 825.5 609.719V568.469C825.5 565.031 825.281 562.875 824.844 562C824.438 561.094 823.703 560.375 822.641 559.844C821.578 559.312 819.594 559.047 816.688 559.047V557.312H846.219C853.906 557.312 859.531 557.844 863.094 558.906C866.656 559.969 869.562 561.938 871.812 564.812C874.062 567.656 875.188 571 875.188 574.844C875.188 579.531 873.5 583.406 870.125 586.469C867.969 588.406 864.953 589.859 861.078 590.828L876.359 612.344C878.359 615.125 879.781 616.859 880.625 617.547C881.906 618.516 883.391 619.047 885.078 619.141V620.875H865.062L844.578 591.906H840.406ZM840.406 560.734V588.578H843.078C847.422 588.578 850.672 588.188 852.828 587.406C854.984 586.594 856.672 585.156 857.891 583.094C859.141 581 859.766 578.281 859.766 574.938C859.766 570.094 858.625 566.516 856.344 564.203C854.094 561.891 850.453 560.734 845.422 560.734H840.406Z" fill="white"/>
<path d="M908.188 557.312L939.547 596.734V569.406C939.547 565.594 939 563.016 937.906 561.672C936.406 559.859 933.891 558.984 930.359 559.047V557.312H951.359V559.047C948.672 559.391 946.859 559.844 945.922 560.406C945.016 560.938 944.297 561.828 943.766 563.078C943.266 564.297 943.016 566.406 943.016 569.406V622.328H941.422L898.438 569.406V609.812C898.438 613.469 899.266 615.938 900.922 617.219C902.609 618.5 904.531 619.141 906.688 619.141H908.188V620.875H885.641V619.141C889.141 619.109 891.578 618.391 892.953 616.984C894.328 615.578 895.016 613.188 895.016 609.812V564.953L893.656 563.266C892.312 561.578 891.125 560.469 890.094 559.938C889.062 559.406 887.578 559.109 885.641 559.047V557.312H908.188Z" fill="white"/>
<path d="M988.812 619.141V620.875H955.578V619.141H957.688C959.531 619.141 961.016 618.812 962.141 618.156C962.953 617.719 963.578 616.969 964.016 615.906C964.359 615.156 964.531 613.188 964.531 610V568.188C964.531 564.938 964.359 562.906 964.016 562.094C963.672 561.281 962.969 560.578 961.906 559.984C960.875 559.359 959.469 559.047 957.688 559.047H955.578V557.312H988.812V559.047H986.703C984.859 559.047 983.375 559.375 982.25 560.031C981.438 560.469 980.797 561.219 980.328 562.281C979.984 563.031 979.812 565 979.812 568.188V610C979.812 613.25 979.984 615.281 980.328 616.094C980.703 616.906 981.406 617.625 982.438 618.25C983.5 618.844 984.922 619.141 986.703 619.141H988.812Z" fill="white"/>
<path d="M1051.62 557.312V574.516H1049.94C1048.94 570.547 1047.83 567.703 1046.61 565.984C1045.39 564.234 1043.72 562.844 1041.59 561.812C1040.41 561.25 1038.33 560.969 1035.36 560.969H1030.62V610C1030.62 613.25 1030.8 615.281 1031.14 616.094C1031.52 616.906 1032.22 617.625 1033.25 618.25C1034.31 618.844 1035.75 619.141 1037.56 619.141H1039.67V620.875H1006.39V619.141H1008.5C1010.34 619.141 1011.83 618.812 1012.95 618.156C1013.77 617.719 1014.41 616.969 1014.88 615.906C1015.22 615.156 1015.39 613.188 1015.39 610V560.969H1010.8C1006.52 560.969 1003.41 561.875 1001.47 563.688C998.75 566.219 997.031 569.828 996.312 574.516H994.531V557.312H1051.62Z" fill="white"/>
<path d="M1057.34 557.312H1090.16V559.047H1088.52C1086.05 559.047 1084.34 559.312 1083.41 559.844C1082.5 560.344 1081.84 561.047 1081.44 561.953C1081.06 562.859 1080.88 565.125 1080.88 568.75V599.875C1080.88 605.562 1081.3 609.328 1082.14 611.172C1083.02 613.016 1084.44 614.547 1086.41 615.766C1088.38 616.984 1090.86 617.594 1093.86 617.594C1097.3 617.594 1100.22 616.828 1102.62 615.297C1105.06 613.734 1106.88 611.594 1108.06 608.875C1109.28 606.156 1109.89 601.422 1109.89 594.672V568.75C1109.89 565.906 1109.59 563.875 1109 562.656C1108.41 561.438 1107.66 560.594 1106.75 560.125C1105.34 559.406 1103.36 559.047 1100.8 559.047V557.312H1122.78V559.047H1121.47C1119.69 559.047 1118.2 559.406 1117.02 560.125C1115.83 560.844 1114.97 561.922 1114.44 563.359C1114.03 564.359 1113.83 566.156 1113.83 568.75V592.891C1113.83 600.359 1113.33 605.75 1112.33 609.062C1111.36 612.375 1108.97 615.422 1105.16 618.203C1101.34 620.984 1096.14 622.375 1089.55 622.375C1084.05 622.375 1079.8 621.641 1076.8 620.172C1072.7 618.172 1069.81 615.609 1068.12 612.484C1066.44 609.359 1065.59 605.156 1065.59 599.875V568.75C1065.59 565.094 1065.39 562.828 1064.98 561.953C1064.58 561.047 1063.88 560.328 1062.88 559.797C1061.88 559.266 1060.03 559.016 1057.34 559.047V557.312Z" fill="white"/>
<path d="M1149.97 591.906V609.719C1149.97 613.156 1150.17 615.328 1150.58 616.234C1151.02 617.109 1151.77 617.812 1152.83 618.344C1153.89 618.875 1155.88 619.141 1158.78 619.141V620.875H1126.25V619.141C1129.19 619.141 1131.17 618.875 1132.2 618.344C1133.27 617.781 1134 617.062 1134.41 616.188C1134.84 615.312 1135.06 613.156 1135.06 609.719V568.469C1135.06 565.031 1134.84 562.875 1134.41 562C1134 561.094 1133.27 560.375 1132.2 559.844C1131.14 559.312 1129.16 559.047 1126.25 559.047V557.312H1155.78C1163.47 557.312 1169.09 557.844 1172.66 558.906C1176.22 559.969 1179.12 561.938 1181.38 564.812C1183.62 567.656 1184.75 571 1184.75 574.844C1184.75 579.531 1183.06 583.406 1179.69 586.469C1177.53 588.406 1174.52 589.859 1170.64 590.828L1185.92 612.344C1187.92 615.125 1189.34 616.859 1190.19 617.547C1191.47 618.516 1192.95 619.047 1194.64 619.141V620.875H1174.62L1154.14 591.906H1149.97ZM1149.97 560.734V588.578H1152.64C1156.98 588.578 1160.23 588.188 1162.39 587.406C1164.55 586.594 1166.23 585.156 1167.45 583.094C1168.7 581 1169.33 578.281 1169.33 574.938C1169.33 570.094 1168.19 566.516 1165.91 564.203C1163.66 561.891 1160.02 560.734 1154.98 560.734H1149.97Z" fill="white"/>
<path d="M1220 560.969V586.844H1221.27C1225.3 586.844 1228.22 585.578 1230.03 583.047C1231.84 580.516 1233 576.781 1233.5 571.844H1235.28V605.125H1233.5C1233.12 601.5 1232.33 598.531 1231.11 596.219C1229.92 593.906 1228.53 592.359 1226.94 591.578C1225.34 590.766 1223.03 590.359 1220 590.359V608.266C1220 611.766 1220.14 613.906 1220.42 614.688C1220.73 615.469 1221.3 616.109 1222.11 616.609C1222.92 617.109 1224.23 617.359 1226.05 617.359H1229.84C1235.78 617.359 1240.53 615.984 1244.09 613.234C1247.69 610.484 1250.27 606.297 1251.83 600.672H1253.56L1250.7 620.875H1195.77V619.141H1197.88C1199.72 619.141 1201.2 618.812 1202.33 618.156C1203.14 617.719 1203.77 616.969 1204.2 615.906C1204.55 615.156 1204.72 613.188 1204.72 610V568.188C1204.72 565.312 1204.64 563.547 1204.48 562.891C1204.17 561.797 1203.59 560.953 1202.75 560.359C1201.56 559.484 1199.94 559.047 1197.88 559.047H1195.77V557.312H1248.97V576.109H1247.19C1246.28 571.516 1245 568.219 1243.34 566.219C1241.72 564.219 1239.41 562.75 1236.41 561.812C1234.66 561.25 1231.38 560.969 1226.56 560.969H1220Z" fill="white"/>
<path d="M993.453 720.562L991.062 742.875H934.625V741.141H936.734C938.578 741.141 940.062 740.812 941.188 740.156C942 739.719 942.625 738.969 943.062 737.906C943.406 737.156 943.578 735.188 943.578 732V690.188C943.578 686.938 943.406 684.906 943.062 684.094C942.719 683.281 942.016 682.578 940.953 681.984C939.922 681.359 938.516 681.047 936.734 681.047H934.625V679.312H968.516V681.047H965.75C963.906 681.047 962.422 681.375 961.297 682.031C960.484 682.469 959.844 683.219 959.375 684.281C959.031 685.031 958.859 687 958.859 690.188V730.688C958.859 733.938 959.047 736.016 959.422 736.922C959.797 737.797 960.531 738.453 961.625 738.891C962.406 739.172 964.297 739.312 967.297 739.312H972.594C975.969 739.312 978.781 738.719 981.031 737.531C983.281 736.344 985.219 734.469 986.844 731.906C988.5 729.344 990.062 725.562 991.531 720.562H993.453Z" fill="white"/>
<path d="M1057.44 679.312V696.516H1055.75C1054.75 692.547 1053.64 689.703 1052.42 687.984C1051.2 686.234 1049.53 684.844 1047.41 683.812C1046.22 683.25 1044.14 682.969 1041.17 682.969H1036.44V732C1036.44 735.25 1036.61 737.281 1036.95 738.094C1037.33 738.906 1038.03 739.625 1039.06 740.25C1040.12 740.844 1041.56 741.141 1043.38 741.141H1045.48V742.875H1012.2V741.141H1014.31C1016.16 741.141 1017.64 740.812 1018.77 740.156C1019.58 739.719 1020.22 738.969 1020.69 737.906C1021.03 737.156 1021.2 735.188 1021.2 732V682.969H1016.61C1012.33 682.969 1009.22 683.875 1007.28 685.688C1004.56 688.219 1002.84 691.828 1002.12 696.516H1000.34V679.312H1057.44Z" fill="white"/>
<path d="M1062.17 742.875V741.141H1064.28C1066.12 741.141 1067.53 740.859 1068.5 740.297C1069.5 739.703 1070.23 738.906 1070.7 737.906C1070.98 737.25 1071.12 735.281 1071.12 732V690.188C1071.12 686.938 1070.95 684.906 1070.61 684.094C1070.27 683.281 1069.56 682.578 1068.5 681.984C1067.47 681.359 1066.06 681.047 1064.28 681.047H1062.17V679.312H1090.62C1098.22 679.312 1104.33 680.344 1108.95 682.406C1114.61 684.938 1118.89 688.766 1121.8 693.891C1124.73 699.016 1126.2 704.812 1126.2 711.281C1126.2 715.75 1125.48 719.875 1124.05 723.656C1122.61 727.406 1120.75 730.516 1118.47 732.984C1116.19 735.422 1113.55 737.391 1110.55 738.891C1107.58 740.359 1103.94 741.5 1099.62 742.312C1097.72 742.688 1094.72 742.875 1090.62 742.875H1062.17ZM1086.41 682.922V732.516C1086.41 735.141 1086.53 736.75 1086.78 737.344C1087.03 737.938 1087.45 738.391 1088.05 738.703C1088.89 739.172 1090.11 739.406 1091.7 739.406C1096.92 739.406 1100.91 737.625 1103.66 734.062C1107.41 729.25 1109.28 721.781 1109.28 711.656C1109.28 703.5 1108 696.984 1105.44 692.109C1103.41 688.297 1100.8 685.703 1097.61 684.328C1095.36 683.359 1091.62 682.891 1086.41 682.922Z" fill="white"/>
<path d="M0.45 1.59998C0.05 2.53331 -0.0833333 237.867 0.05 524.667L0.45 1046L473.65 1046.4C851.383 1046.67 947.117 1046.4 948.05 1045.07C948.983 1043.47 949.65 1025.87 948.85 1025.07C948.583 1024.8 746.583 1024.4 499.783 1024L51.1167 1023.33V538V52.6666H378.45H705.783V88.6666V124.667L701.783 126.533C691.65 131.2 686.45 139.733 686.45 151.467V158.8L676.583 163.2C644.05 178 621.383 206.8 615.917 240.133C613.783 253.067 614.05 266.8 616.583 270.4C618.583 273.333 619.117 273.333 647.917 273.333H677.25L679.25 278.267C684.05 290.533 690.45 298.533 698.85 302.8C705.117 306.133 718.717 307.467 725.783 305.467C737.517 302.4 748.183 292 752.183 280L754.183 274L782.583 273.6C817.117 273.2 815.783 273.867 815.783 258.133C815.783 216.933 792.05 180.8 753.65 163.2L743.783 158.8V151.733C743.65 139.867 738.85 132.4 727.117 125.867C724.583 124.4 724.45 122.8 724.05 91.2C723.917 72.9333 724.05 56.6666 724.45 54.9333L725.117 51.9999H811.783H898.45V54.9333C898.45 56.6666 898.583 117.733 898.85 190.667L899.117 323.333L910.317 336.667C916.45 344 923.25 352.133 925.383 354.667C927.517 357.2 932.983 364 937.517 369.6C942.05 375.2 946.583 379.867 947.517 380C948.717 380 949.117 341.333 949.117 190.8C949.117 19.4666 948.983 1.59993 946.983 0.799927C945.783 0.399927 732.583 0 472.983 0C96.5833 0 0.85 0.399976 0.45 1.59998ZM735.517 276.133C736.183 279.867 729.65 286.133 722.983 288C717.917 289.467 715.517 289.467 710.583 288.133C701.517 285.733 694.317 277.867 698.05 274.133C698.583 273.733 707.117 273.467 716.983 273.6C732.45 274 735.117 274.267 735.517 276.133Z" fill="white"/>
<path d="M175.783 369.867C140.717 380.4 115.383 406.4 104.183 443.2L100.983 454V612.667C101.117 768.933 101.117 771.467 103.917 781.333C109.917 803.2 119.117 816.533 142.183 836.8L146.583 840.667L144.05 850.667C142.717 856.133 140.85 863.6 140.05 867.333C139.25 870.933 136.983 881.2 134.983 890C133.117 898.8 130.983 908.133 130.45 910.667C129.917 913.2 128.05 921.067 126.583 928C124.983 934.933 123.117 943.333 122.45 946.667C121.783 950 120.317 956.8 119.117 962C118.05 967.067 117.117 972.667 117.117 974.267C117.117 978.133 123.383 982.933 126.983 981.867C132.45 980.267 134.717 976.4 137.117 965.2C138.45 959.067 140.85 948.267 142.45 941.333C145.65 927.2 146.45 923.2 150.183 906C153.917 889.2 160.85 858.8 162.183 854C163.517 849.2 163.383 849.333 174.45 852.8C189.25 857.6 200.85 858.667 240.317 858.667H278.317L279.517 865.6C281.383 875.733 284.85 895.867 285.65 901.333C287.25 911.733 294.717 957.6 297.117 971.867C298.583 980.133 300.45 987.733 301.25 988.8C304.983 993.333 314.85 990.533 316.317 984.667C316.85 982.667 316.317 976 315.25 969.6C311.517 947.733 308.717 931.333 307.65 924C307.117 920 305.917 913.067 305.117 908.667C302.05 892.133 297.117 859.6 297.65 859.067C297.917 858.8 325.917 858.8 360.05 858.933L422.05 859.333L418.983 873.333C398.983 964.533 397.517 972.4 398.717 976.133C400.183 980.667 406.45 983.467 410.317 981.467C414.05 979.467 415.117 977.067 417.65 964.667C418.85 958.8 421.65 946.133 423.783 936.667C425.917 927.067 429.783 909.067 432.45 896.667C435.117 884.133 438.05 870.667 438.983 866.667L440.583 859.333L514.45 858.667C555.117 858.267 589.783 857.467 591.25 856.8C593.25 856.133 594.317 856.4 594.85 857.867C595.65 860 601.517 884.133 613.65 936.667C624.05 980.8 623.383 979.2 629.25 981.2C631.917 982.133 633.65 981.867 635.65 980.533C641.25 976.533 641.383 974.4 637.25 957.067C633.117 939.467 625.383 906.8 620.85 887.333C619.383 880.667 616.717 869.733 614.983 862.8L611.783 850.4L620.183 841.467C629.917 831.2 634.183 821.467 635.383 807.733C636.717 791.467 630.85 774.933 619.517 763.067C614.45 757.867 602.183 751.333 595.117 750.133C586.85 748.667 585.117 748 585.117 745.867C585.117 744.667 583.517 737.067 581.65 728.933C579.783 720.667 576.45 706.133 574.317 696.667C572.183 687.067 569.783 677.6 569.117 675.6C566.583 667.733 565.25 668 614.717 668C641.517 668 660.983 667.467 662.45 666.667C668.717 663.333 666.317 652.8 658.583 650.533C655.383 649.733 627.383 649.333 576.183 649.6L498.717 650L495.25 653.2C491.117 657.067 490.85 661.733 494.45 665.333C496.983 667.867 498.85 668 522.45 668C547.517 668 547.917 668 549.117 670.933C549.783 672.667 553.117 686 556.45 700.667C559.917 715.333 563.517 731.333 564.717 736.267C565.783 741.2 566.45 746.133 566.05 747.333C565.25 749.067 557.917 749.333 504.05 749.333C454.85 749.333 442.45 748.933 441.25 747.6C440.317 746.267 439.783 702.933 439.517 598.533C439.117 463.333 438.85 450.667 436.717 443.333C425.917 405.867 398.05 378.4 361.783 369.333C351.65 366.8 346.583 366.667 268.45 366.8C186.583 366.8 185.65 366.8 175.783 369.867ZM362.05 388.133C386.317 397.067 402.183 410.533 412.317 431.067C422.85 452.267 422.45 444.133 422.45 604.8C422.45 733.867 422.183 747.733 420.317 748.533C419.117 748.933 397.65 749.333 372.45 749.333C330.85 749.333 326.45 749.6 324.05 751.6C319.783 755.333 319.65 762.4 323.783 765.067C325.917 766.4 354.45 766.667 456.983 766.667C602.45 766.667 596.317 766.267 606.05 775.733C613.383 782.8 616.183 789.6 616.85 800.933C617.783 817.467 611.117 829.067 596.45 836L588.05 840H442.05C326.85 840 295.783 839.6 294.717 838.267C294.05 837.467 292.183 828.8 290.583 819.333C286.717 795.733 273.917 716 269.917 690.8C268.05 679.467 266.85 669.733 267.25 669.067C267.65 668.533 289.25 668 315.383 668C362.317 668 362.983 668 366.05 665.067C369.783 661.467 369.917 658.667 366.317 654.133L363.65 650.667H299.383C228.717 650.667 224.717 651.067 210.717 658.933C197.25 666.533 185.383 680.8 180.45 695.333C178.05 702.4 173.917 719.733 162.583 770.667C151.65 819.467 151.783 818.667 150.317 818.667C147.783 818.667 137.117 807.6 131.917 799.467C128.983 794.933 124.85 786.667 122.85 781.2L119.117 771.333V612.667V454L122.583 444.667C129.25 426.4 140.983 410.267 155.783 398.933C162.717 393.6 176.85 388 191.117 384.8C192.583 384.533 229.517 384.4 273.117 384.533L352.45 384.667L362.05 388.133ZM248.45 672.267C248.983 675.333 251.383 690.267 257.783 730.667C259.65 742.8 262.05 757.733 263.117 764C272.85 820.133 274.983 835.2 274.05 837.867C273.25 839.733 268.983 840 238.183 840C202.45 840 193.517 839.2 179.117 834.4C168.183 830.8 167.783 830 170.45 818.4C171.783 813.067 174.717 800 176.983 789.333C179.383 778.667 182.45 765.2 183.783 759.333C185.117 753.467 187.517 742.667 189.117 735.333C194.183 712.267 194.717 710.133 196.05 706C203.917 682.8 220.05 670 242.05 669.467C246.85 669.333 247.783 669.733 248.45 672.267Z" fill="white"/>
<path d="M681.117 796.267C677.917 799.733 677.651 805.6 680.584 808.533C681.651 809.733 682.717 810.8 682.851 810.933C682.984 811.067 693.651 811.467 706.451 811.867L729.784 812.667L729.651 816C729.651 817.867 728.584 825.067 727.251 832C726.051 838.933 723.251 854.533 721.117 866.667C718.984 878.8 716.051 895.2 714.584 903.333C713.117 911.333 710.051 927.867 707.917 940C705.784 952.133 703.651 964.133 703.117 966.667C702.717 969.2 701.651 973.867 700.851 976.8C699.784 981.2 699.917 983.067 701.651 986.533C703.517 990.133 704.584 990.667 709.117 990.667C716.317 990.667 717.651 988.133 721.117 968.667C722.584 959.867 724.451 949.6 725.117 946C727.384 935.067 731.651 911.867 733.117 903.6C733.784 899.467 735.117 892.533 735.784 888.267C738.051 875.467 742.451 851.733 743.784 844.667C744.584 840.933 746.184 832.267 747.517 825.333L749.784 812.667H786.451H823.117L824.851 822.667C825.784 828.133 827.117 835.6 827.784 839.333C828.451 842.933 829.651 849.733 830.451 854.267C831.117 858.933 832.317 866.133 833.117 870.267C833.784 874.533 835.384 883.733 836.451 890.667C837.651 897.6 839.117 906.267 839.784 910C841.917 921.6 846.584 948.4 847.784 956C853.117 988.4 853.917 990.667 861.917 990.667C870.717 990.667 871.917 986.4 868.451 967.733C867.251 961.6 865.784 953.6 865.117 950C864.451 946.267 863.251 938.533 862.451 932.667C861.517 926.8 860.317 919.867 859.784 917.333C859.117 914.8 857.651 907.2 856.584 900.667C852.184 873.067 847.784 846.933 846.584 841.333C844.451 831.067 842.051 813.2 842.851 812.533C843.117 812.133 856.051 811.867 871.517 811.867C897.251 811.867 899.784 811.733 902.851 809.333C907.651 805.467 908.051 801.867 904.184 797.333L900.851 793.333H792.451H683.917L681.117 796.267Z" fill="white"/>
</svg>
